<svg xmlns="http://www.w3.org/2000/svg" xmlns:xlink="http://www.w3.org/1999/xlink" viewBox="0 0 1787.67 1244.56"><defs><style>.cls-1{fill:url(#linear-gradient);}.cls-2{fill:url(#linear-gradient-2);}.cls-3{fill:url(#linear-gradient-3);}.cls-4{fill:url(#linear-gradient-4);}.cls-5{fill:url(#linear-gradient-5);}.cls-6{fill:url(#linear-gradient-6);}.cls-7{fill:url(#linear-gradient-7);}.cls-8{fill:none;clip-rule:evenodd;}.cls-9{clip-path:url(#clip-path);}.cls-10{fill:url(#linear-gradient-8);}.cls-11{mask:url(#mask);}.cls-12{fill:#ecb0fc;}.cls-12,.cls-15,.cls-19,.cls-21,.cls-23,.cls-25{fill-rule:evenodd;}.cls-13{mask:url(#mask-2);}.cls-14{mask:url(#mask-3);}.cls-15{fill:#200054;}.cls-16{clip-path:url(#clip-path-2);}.cls-17{fill:url(#linear-gradient-9);}.cls-18{mask:url(#mask-4);}.cls-19{fill:#1d1059;}.cls-20{mask:url(#mask-5);}.cls-21{fill:#66edff;}.cls-22{mask:url(#mask-6);}.cls-23{fill:#7fffcc;}.cls-24{mask:url(#mask-7);}.cls-25{fill:#a770ff;}</style><linearGradient id="linear-gradient" x1="2003.72" y1="917.52" x2="1237.11" y2="917.52" gradientTransform="translate(139.23 -109.47)" gradientUnits="userSpaceOnUse"><stop offset="0" stop-color="#fff"/><stop offset="1"/></linearGradient><linearGradient id="linear-gradient-2" x1="1705.33" y1="554.67" x2="1365.99" y2="554.67" gradientTransform="translate(151.29 -123.69)" xlink:href="#linear-gradient"/><linearGradient id="linear-gradient-3" x1="-323.55" y1="938.27" x2="1566.37" y2="938.27" gradientTransform="translate(115.46 -109.47)" xlink:href="#linear-gradient"/><linearGradient id="linear-gradient-4" x1="2551.2" y1="556.69" x2="689.71" y2="556.69" gradientTransform="translate(109.81 -126.24)" xlink:href="#linear-gradient"/><linearGradient id="linear-gradient-5" x1="-667.91" y1="730.04" x2="589.61" y2="730.04" gradientTransform="translate(65.92 -111.59)" xlink:href="#linear-gradient"/><linearGradient id="linear-gradient-6" x1="-345.65" y1="1147.94" x2="660.13" y2="1147.94" gradientTransform="translate(79.91 -100.54)" xlink:href="#linear-gradient"/><linearGradient id="linear-gradient-7" x1="1926.03" y1="-106.02" x2="291.12" y2="1181.14" gradientTransform="translate(79.91 -100.54)" gradientUnits="userSpaceOnUse"><stop offset="0" stop-color="#fff"/><stop offset="0.1" stop-color="#efefef" stop-opacity="0.94"/><stop offset="0.29" stop-color="#c5c5c5" stop-opacity="0.77"/><stop offset="0.55" stop-color="#828282" stop-opacity="0.51"/><stop offset="0.87" stop-color="#272727" stop-opacity="0.15"/><stop offset="1" stop-opacity="0"/></linearGradient><clipPath id="clip-path"><path id="SVGID" class="cls-8" d="M1411,0l75.74,199,23.17-78c144.19,253.72-43.44,461.21-241.78,605.52C1082.84,861.31,862.22,987,818.86,1096.91h626.8c188.89,0,342-153.11,342-342a340.7,340.7,0,0,0-94.29-235.74c-34,112.94-104.33,258.15-282.38,342.8,211.72-170.7,338.49-543.23,131.7-765.1l87.61-10.12Z"/></clipPath><linearGradient id="linear-gradient-8" x1="842.28" y1="915.62" x2="1885.92" y2="84.38" gradientUnits="userSpaceOnUse"><stop offset="0" stop-color="#6432b5"/><stop offset="0.63" stop-color="#bd40df"/><stop offset="1" stop-color="#f349f9"/></linearGradient><mask id="mask" x="1211.71" y="519.17" width="575.96" height="577.74" maskUnits="userSpaceOnUse"><rect class="cls-1" x="1211.71" y="519.17" width="575.96" height="577.74"/></mask><mask id="mask-2" x="1411" y="0" width="236.95" height="861.96" maskUnits="userSpaceOnUse"><rect class="cls-2" x="1411" width="236.95" height="861.96"/></mask><mask id="mask-3" x="818.86" y="560.68" width="633.04" height="536.23" maskUnits="userSpaceOnUse"><rect class="cls-3" x="818.86" y="560.68" width="633.04" height="536.23"/></mask><clipPath id="clip-path-2"><path id="SVGID-2" data-name="SVGID" class="cls-8" d="M231.12,1244.56C241.87,1014.42,489.55,808,655.51,691.9,541.56,736.6,327.76,828.8,203.9,1062,83.31,1004.25,0,881.11,0,738.5c0-178.76,130.88-326.94,302-354,29.89-120.36,138.65-209.57,268.25-209.57a275.07,275.07,0,0,1,145.58,41.42c77.55-106.21,210.33-175.23,351.9-175.23,228.67,0,488.85,252.48,262.93,433.86C1092.59,666.14,414,894.17,231.12,1244.56"/></clipPath><linearGradient id="linear-gradient-9" x1="1990.59" y1="-144.61" x2="-142.8" y2="1241.17" gradientUnits="userSpaceOnUse"><stop offset="0" stop-color="#2300bd"/><stop offset="0.42" stop-color="#2c57d3"/><stop offset="1" stop-color="#39d5f4"/></linearGradient><mask id="mask-4" x="725.47" y="41.13" width="692.1" height="778.63" maskUnits="userSpaceOnUse"><rect class="cls-4" x="725.47" y="41.13" width="692.1" height="778.63"/></mask><mask id="mask-5" x="0" y="174.94" width="715.86" height="887.01" maskUnits="userSpaceOnUse"><rect class="cls-5" y="174.94" width="715.86" height="887.01"/></mask><mask id="mask-6" x="231.11" y="850.24" width="442.17" height="394.33" maskUnits="userSpaceOnUse"><rect class="cls-6" x="231.11" y="850.24" width="442.17" height="394.33"/></mask><mask id="mask-7" x="231.12" y="181.09" width="1214.09" height="1063.47" maskUnits="userSpaceOnUse"><rect class="cls-7" x="231.12" y="181.09" width="1214.09" height="1063.47"/></mask></defs><g id="Layer_2" data-name="Layer 2"><g id="Objects"><g class="cls-9"><rect class="cls-10" x="818.86" width="968.81" height="1096.91"/></g><g class="cls-11"><path class="cls-12" d="M1211.71,1096.91h234c188.89,0,342-153.11,342-342a340.7,340.7,0,0,0-94.29-235.74c-21,69.6-55.73,151.46-121,223.85,41.37,92.58,13.83,314.88-360.68,353.89"/></g><g class="cls-13"><path class="cls-12" d="M1411,0l75.74,199,23.17-78c65.53,33.65,212.43,373.82-98.91,741,211.72-170.69,338.49-543.22,131.7-765.09l87.61-10.12Z"/></g><g class="cls-14"><path class="cls-15" d="M1451.85,560.71c-52,61.93-117.24,117.41-183.72,165.78C1082.84,861.31,862.22,987,818.86,1096.91h313.4c-13.12-149.35,299.27-405,319.64-536.23Z"/></g><g class="cls-16"><rect class="cls-17" y="41.13" width="1556.61" height="1203.43"/></g><g class="cls-18"><path class="cls-19" d="M802.62,129.19a445.91,445.91,0,0,1,265.14-88.06c228.67,0,488.85,252.48,262.93,433.85C1205.43,575.55,958.25,686.34,725.47,819.77c75.38-71.67,241.37-205,326.43-292.72,201-207.18,54.58-481.76-249.28-397.86"/></g><g class="cls-20"><path class="cls-21" d="M655.51,691.89C541.56,736.6,327.76,828.8,203.9,1062,83.31,1004.25,0,881.11,0,738.5c0-178.76,130.87-326.94,302-354,29.89-120.36,138.65-209.57,268.25-209.57a275.07,275.07,0,0,1,145.58,41.42h0c-7.08-.56-312.77-58.48-318.18,259C271.11,515.87,199.26,671.18,246,807.15c130.17-68,335.86-114.75,409.51-115.26"/></g><g class="cls-22"><path class="cls-23" d="M231.11,1244.56c4.75-101.53,55.63-198.43,125.25-285,96.58-51.53,221-89,316.92-109.3-189.76,113-362.73,242.13-442.17,394.32"/></g><g class="cls-24"><path class="cls-25" d="M231.12,1244.56H563.58s142.13-245,493.79-493.78c188.43-133.33,550.91-336.21,305.21-569.69,71.74,87.11,85,200-31.89,293.9C1092.59,666.13,414,894.17,231.12,1244.56"/></g></g></g></svg>